<?xml version="1.0" encoding="UTF-8" standalone="no"?>
<svg
   height="48"
   width="48"
   version="1.1"
   id="svg4"
   sodipodi:docname="eye.svg"
   inkscape:version="1.2 (dc2aedaf03, 2022-05-15)"
   inkscape:export-filename="../eye.png"
   inkscape:export-xdpi="1000"
   inkscape:export-ydpi="1000"
   xmlns:inkscape="http://www.inkscape.org/namespaces/inkscape"
   xmlns:sodipodi="http://sodipodi.sourceforge.net/DTD/sodipodi-0.dtd"
   xmlns="http://www.w3.org/2000/svg"
   xmlns:svg="http://www.w3.org/2000/svg">
  <defs
     id="defs8" />
  <sodipodi:namedview
     id="namedview6"
     pagecolor="#505050"
     bordercolor="#ffffff"
     borderopacity="1"
     inkscape:showpageshadow="0"
     inkscape:pageopacity="0"
     inkscape:pagecheckerboard="1"
     inkscape:deskcolor="#505050"
     showgrid="false"
     inkscape:zoom="17.583333"
     inkscape:cx="24.028436"
     inkscape:cy="24"
     inkscape:window-width="1920"
     inkscape:window-height="1040"
     inkscape:window-x="0"
     inkscape:window-y="0"
     inkscape:window-maximized="1"
     inkscape:current-layer="svg4" />
  <path
     d="M24 31.35Q27.5 31.35 29.925 28.9Q32.35 26.45 32.35 23Q32.35 19.5 29.9 17.075Q27.45 14.65 24 14.65Q20.5 14.65 18.075 17.1Q15.65 19.55 15.65 23Q15.65 26.5 18.1 28.925Q20.55 31.35 24 31.35ZM24 27.8Q22 27.8 20.6 26.375Q19.2 24.95 19.2 23Q19.2 21 20.625 19.6Q22.05 18.2 24 18.2Q26 18.2 27.4 19.625Q28.8 21.05 28.8 23Q28.8 25 27.375 26.4Q25.95 27.8 24 27.8ZM24 39Q16.45 39 10.275 34.55Q4.1 30.1 1.05 23Q4.1 15.9 10.275 11.45Q16.45 7 24 7Q31.55 7 37.725 11.45Q43.9 15.9 46.95 23Q43.9 30.1 37.725 34.55Q31.55 39 24 39Z"
     id="path2"
     style="fill:#ffffff" />
</svg>
