<?xml version="1.0" encoding="UTF-8" standalone="no"?>
<svg
   height="48"
   width="48"
   version="1.1"
   id="svg4"
   sodipodi:docname="eye_off.svg"
   inkscape:version="1.2 (dc2aedaf03, 2022-05-15)"
   inkscape:export-filename="../eye_off.png"
   inkscape:export-xdpi="1000"
   inkscape:export-ydpi="1000"
   xmlns:inkscape="http://www.inkscape.org/namespaces/inkscape"
   xmlns:sodipodi="http://sodipodi.sourceforge.net/DTD/sodipodi-0.dtd"
   xmlns="http://www.w3.org/2000/svg"
   xmlns:svg="http://www.w3.org/2000/svg">
  <defs
     id="defs8" />
  <sodipodi:namedview
     id="namedview6"
     pagecolor="#505050"
     bordercolor="#ffffff"
     borderopacity="1"
     inkscape:showpageshadow="0"
     inkscape:pageopacity="0"
     inkscape:pagecheckerboard="1"
     inkscape:deskcolor="#505050"
     showgrid="false"
     inkscape:zoom="8.7916667"
     inkscape:cx="41.118483"
     inkscape:cy="11.943128"
     inkscape:window-width="1920"
     inkscape:window-height="1040"
     inkscape:window-x="0"
     inkscape:window-y="0"
     inkscape:window-maximized="1"
     inkscape:current-layer="svg4" />
  <path
     d="M40.3 45 32.65 37.45Q30.9 38.15 28.675 38.575Q26.45 39 24 39Q16.6 39 10.35 34.8Q4.1 30.6 1.05 23Q1.9 20.4 3.8 17.825Q5.7 15.25 8.15 12.85L2 6.85L4.4 4.35L42.55 42.5ZM24 31.35Q24.6 31.35 25.225 31.2Q25.85 31.05 26.25 30.9L16 20.75Q15.9 21.25 15.775 21.85Q15.65 22.45 15.65 23Q15.65 26.55 18.1 28.95Q20.55 31.35 24 31.35ZM39 33.75 31.55 26.3Q31.95 25.7 32.15 24.75Q32.35 23.8 32.35 23Q32.35 19.5 29.925 17.075Q27.5 14.65 24 14.65Q23.15 14.65 22.35 14.825Q21.55 15 20.7 15.4L14.3 8.95Q16 8.25 18.825 7.625Q21.65 7 24.25 7Q31.45 7 37.675 11.2Q43.9 15.4 46.95 23Q45.75 26.3 43.65 29Q41.55 31.7 39 33.75ZM27.8 22.5 24.15 18.9Q24.75 18.5 25.625 18.575Q26.5 18.65 27.2 19.15Q27.85 19.8 28.075 20.575Q28.3 21.35 27.8 22.5Z"
     id="path2"
     style="fill:#ffffff;stroke:none" />
</svg>
