<svg xmlns="http://www.w3.org/2000/svg" xmlns:svg="http://www.w3.org/2000/svg" id="svg4" width="48" height="48" version="1.1"><path id="path2" d="m 32.75,9.6 -8,8 -2.3,-2.25 3.45,-3.45 h -1.95 c -3.3,0 -6.15,1.2 -8.55,3.6 -2.4,2.4 -3.6,5.233333 -3.6,8.5 0,1.066667 0.108333,2.075 0.325,3.025 0.216667,0.95 0.508333,1.791667 0.875,2.525 l -3.2,3.2 C 8.8666667,31.416667 8.2083333,30.025 7.825,28.575 7.4416667,27.125 7.25,25.6 7.25,24 7.25,19.466667 8.8916667,15.558333 12.175,12.275 15.458333,8.9916667 19.333333,7.35 23.8,7.35 h 2.15 L 22.5,3.85 24.75,1.6 Z m -17.55,28.95 8,-8.1 2.25,2.35 -3.5,3.45 h 2.15 c 3.266667,0.03333 6.1,-1.15 8.5,-3.55 2.4,-2.4 3.6,-5.266667 3.6,-8.6 0,-1.033333 -0.108333,-2.025 -0.325,-2.975 -0.216667,-0.95 -0.525,-1.808333 -0.925,-2.575 l 3.25,-3.2 c 0.9,1.433333 1.55,2.866667 1.95,4.3 0.4,1.433333 0.6,2.916667 0.6,4.45 0,4.566667 -1.641667,8.508333 -4.925,11.825 -3.283333,3.316667 -7.141667,4.958333 -11.575,4.925 h -2.3 l 3.5,3.5 -2.25,2.2 z" style="fill:#fff"/></svg>